<mxfile host="app.diagrams.net" modified="2021-08-02T14:57:04.810Z" agent="5.0 (Windows NT 10.0; Win64; x64) AppleWebKit/537.36 (KHTML, like Gecko) Chrome/92.0.4515.107 Safari/537.36" etag="RjhFNY8l0oeoS6NtGGAX" version="14.9.3" type="github">
  <diagram id="MRqDIkqy_xh84EIpfJnO" name="Page-1">
    <mxGraphModel dx="1102" dy="682" grid="1" gridSize="10" guides="1" tooltips="1" connect="1" arrows="1" fold="1" page="1" pageScale="1" pageWidth="827" pageHeight="1169" math="0" shadow="0">
      <root>
        <mxCell id="0" />
        <mxCell id="1" parent="0" />
        <mxCell id="gFlfQ8LH-sJRkiVkNTOA-1" value="" style="endArrow=classic;html=1;" edge="1" parent="1">
          <mxGeometry width="50" height="50" relative="1" as="geometry">
            <mxPoint x="50" y="320" as="sourcePoint" />
            <mxPoint x="730" y="320" as="targetPoint" />
          </mxGeometry>
        </mxCell>
        <mxCell id="gFlfQ8LH-sJRkiVkNTOA-2" value="" style="endArrow=none;html=1;" edge="1" parent="1">
          <mxGeometry width="50" height="50" relative="1" as="geometry">
            <mxPoint x="440" y="350" as="sourcePoint" />
            <mxPoint x="440" y="320" as="targetPoint" />
          </mxGeometry>
        </mxCell>
        <mxCell id="gFlfQ8LH-sJRkiVkNTOA-3" value="1.0.6和1.1.2" style="whiteSpace=wrap;html=1;" vertex="1" parent="1">
          <mxGeometry x="390" y="350" width="80" height="30" as="geometry" />
        </mxCell>
        <mxCell id="gFlfQ8LH-sJRkiVkNTOA-5" value="6月5号" style="whiteSpace=wrap;html=1;" vertex="1" parent="1">
          <mxGeometry x="400" y="295" width="80" height="20" as="geometry" />
        </mxCell>
        <mxCell id="gFlfQ8LH-sJRkiVkNTOA-7" value="" style="endArrow=none;html=1;" edge="1" parent="1">
          <mxGeometry width="50" height="50" relative="1" as="geometry">
            <mxPoint x="249.5" y="350" as="sourcePoint" />
            <mxPoint x="249.5" y="320" as="targetPoint" />
          </mxGeometry>
        </mxCell>
        <mxCell id="gFlfQ8LH-sJRkiVkNTOA-9" value="1.1.1" style="rounded=1;whiteSpace=wrap;html=1;" vertex="1" parent="1">
          <mxGeometry x="210" y="355" width="80" height="20" as="geometry" />
        </mxCell>
        <mxCell id="gFlfQ8LH-sJRkiVkNTOA-10" value="3月8号" style="whiteSpace=wrap;html=1;" vertex="1" parent="1">
          <mxGeometry x="220" y="290" width="60" height="20" as="geometry" />
        </mxCell>
        <mxCell id="gFlfQ8LH-sJRkiVkNTOA-11" value="" style="endArrow=none;html=1;" edge="1" parent="1">
          <mxGeometry width="50" height="50" relative="1" as="geometry">
            <mxPoint x="590" y="350" as="sourcePoint" />
            <mxPoint x="590" y="320" as="targetPoint" />
          </mxGeometry>
        </mxCell>
        <mxCell id="gFlfQ8LH-sJRkiVkNTOA-12" value="1.0.7和1.1.3" style="whiteSpace=wrap;html=1;" vertex="1" parent="1">
          <mxGeometry x="540" y="350" width="90" height="20" as="geometry" />
        </mxCell>
        <mxCell id="gFlfQ8LH-sJRkiVkNTOA-13" value="9月14号" style="whiteSpace=wrap;html=1;" vertex="1" parent="1">
          <mxGeometry x="550" y="290" width="70" height="20" as="geometry" />
        </mxCell>
        <mxCell id="gFlfQ8LH-sJRkiVkNTOA-14" value="" style="endArrow=none;html=1;" edge="1" parent="1">
          <mxGeometry width="50" height="50" relative="1" as="geometry">
            <mxPoint x="350" y="350" as="sourcePoint" />
            <mxPoint x="350" y="320" as="targetPoint" />
          </mxGeometry>
        </mxCell>
        <mxCell id="gFlfQ8LH-sJRkiVkNTOA-15" value="commit" style="whiteSpace=wrap;html=1;" vertex="1" parent="1">
          <mxGeometry x="320" y="350" width="60" height="20" as="geometry" />
        </mxCell>
        <mxCell id="gFlfQ8LH-sJRkiVkNTOA-16" value="5月30号" style="whiteSpace=wrap;html=1;" vertex="1" parent="1">
          <mxGeometry x="315" y="290" width="70" height="20" as="geometry" />
        </mxCell>
        <mxCell id="gFlfQ8LH-sJRkiVkNTOA-17" value="1.1.2 patched&lt;br&gt;1.0.6 not patched&lt;br&gt;官网信息是before 1.1.2 引用的是 fixed&amp;nbsp;in roundcubemail 1.1.2 and 1.0.6" style="whiteSpace=wrap;html=1;" vertex="1" parent="1">
          <mxGeometry x="315" y="420" width="270" height="60" as="geometry" />
        </mxCell>
        <mxCell id="gFlfQ8LH-sJRkiVkNTOA-18" value="时间" style="text;html=1;align=center;verticalAlign=middle;resizable=0;points=[];autosize=1;strokeColor=none;" vertex="1" parent="1">
          <mxGeometry x="700" y="290" width="40" height="20" as="geometry" />
        </mxCell>
      </root>
    </mxGraphModel>
  </diagram>
</mxfile>
